<svg xmlns:xlink="http://www.w3.org/1999/xlink" xmlns="http://www.w3.org/2000/svg" width="23" height="23" viewBox="0 0 23 23" fill="none"><rect y="3" width="20" height="20" rx="2" fill="#00FFFF"></rect><path d="M20.5 1.25C20.8315 1.25 21.1495 1.3817 21.3839 1.61612C21.6183 1.85054 21.75 2.16848 21.75 2.5V17.5C21.75 17.8315 21.6183 18.1495 21.3839 18.3839C21.1495 18.6183 20.8315 18.75 20.5 18.75H5.5C5.16848 18.75 4.85054 18.6183 4.61612 18.3839C4.3817 18.1495 4.25 17.8315 4.25 17.5V2.5C4.25 2.16848 4.3817 1.85054 4.61612 1.61612C4.85054 1.3817 5.16848 1.25 5.5 1.25H20.5ZM5.5 0C4.83696 0 4.20107 0.263392 3.73223 0.732233C3.26339 1.20107 3 1.83696 3 2.5L3 17.5C3 18.163 3.26339 18.7989 3.73223 19.2678C4.20107 19.7366 4.83696 20 5.5 20H20.5C21.163 20 21.7989 19.7366 22.2678 19.2678C22.7366 18.7989 23 18.163 23 17.5V2.5C23 1.83696 22.7366 1.20107 22.2678 0.732233C21.7989 0.263392 21.163 0 20.5 0L5.5 0Z" fill="#292B30"></path><path d="M16.7125 6.21248C16.8874 6.03907 17.1236 5.94148 17.3699 5.9408C17.6162 5.94012 17.8529 6.03641 18.0288 6.20885C18.2047 6.38129 18.3057 6.61603 18.3099 6.86232C18.3141 7.1086 18.2212 7.34665 18.0513 7.52498L13.0612 13.7625C12.9755 13.8549 12.872 13.929 12.7569 13.9804C12.6418 14.0319 12.5176 14.0596 12.3916 14.062C12.2655 14.0643 12.1403 14.0412 12.0234 13.994C11.9066 13.9469 11.8004 13.8766 11.7112 13.7875L8.405 10.48C8.31289 10.3942 8.23901 10.2907 8.18777 10.1757C8.13653 10.0607 8.10898 9.93652 8.10676 9.81064C8.10454 9.68476 8.12769 9.55972 8.17485 9.44299C8.222 9.32625 8.29218 9.22021 8.3812 9.13119C8.47022 9.04216 8.57627 8.97198 8.693 8.92483C8.80974 8.87768 8.93477 8.85452 9.06065 8.85674C9.18653 8.85897 9.31067 8.88652 9.42567 8.93776C9.54067 8.989 9.64417 9.06288 9.73 9.15498L12.3475 11.7712L16.6888 6.23998C16.6965 6.2303 16.7048 6.22111 16.7137 6.21248H16.7125Z" fill="#292B30"></path></svg>