<svg xmlns="http://www.w3.org/2000/svg" width="450" height="186" viewBox="0 0 450 186" fill="none"><path d="M188.465 119.283L203.611 105.5C219.059 91.5662 221.786 82.1758 221.786 71.7251C221.786 51.5811 204.065 38.5557 178.923 38.5557C156.053 38.5557 140.755 48.552 133.031 63.092L159.991 76.5718C163.171 70.2105 169.23 66.727 175.591 66.727C182.407 66.727 185.89 69.9076 185.89 75.0572C185.89 78.6922 184.83 82.7816 177.56 89.5972L139.241 125.039V147H224.209V119.283H188.465ZM311.812 91.1118C318.325 85.9622 322.263 78.9951 322.263 70.2105C322.263 50.9753 304.239 38.5557 278.492 38.5557C252.744 38.5557 234.72 50.9753 234.72 70.2105C234.72 78.9951 238.658 85.9622 245.171 91.1118C236.235 96.5643 230.934 104.895 230.934 115.497C230.934 136.095 250.472 149.423 278.492 149.423C306.511 149.423 326.049 136.095 326.049 115.497C326.049 104.895 320.748 96.5643 311.812 91.1118ZM278.492 62.6376C283.338 62.6376 286.973 65.9697 286.973 71.7251C286.973 77.4806 283.338 80.8126 278.492 80.8126C273.645 80.8126 270.01 77.4806 270.01 71.7251C270.01 65.9697 273.645 62.6376 278.492 62.6376ZM278.492 125.341C271.676 125.341 266.829 121.101 266.829 114.285C266.829 107.469 271.676 103.228 278.492 103.228C285.307 103.228 290.154 107.469 290.154 114.285C290.154 121.101 285.307 125.341 278.492 125.341Z" fill="#292B30"></path><path d="M343.371 79.5677C340.24 79.5677 337.858 81.8136 337.858 85.2164C337.858 87.6664 339.151 89.4359 341.057 90.2526L338.335 100.665H343.847L347.318 91.0692C348.543 87.9386 348.883 86.7136 348.883 85.2164C348.883 81.8816 346.57 79.5677 343.371 79.5677ZM370.671 42.0687C360.939 42.0687 353.249 48.0577 353.249 57.5175C353.249 66.4329 360.258 72.1496 369.65 72.1496C374.959 72.1496 379.518 70.5162 382.377 67.1815V67.2496C382.377 78.0705 376.728 83.6511 367.745 83.6511C364.41 83.6511 361.279 83.0386 358.693 81.3372L355.426 88.0067C358.625 90.0484 363.185 91.0692 367.949 91.0692C381.764 91.0692 391.292 82.0858 391.292 65.7523C391.292 50.4397 383.67 42.0687 370.671 42.0687ZM371.352 65.2079C365.567 65.2079 361.824 62.0773 361.824 57.1092C361.824 52.1411 365.635 49.0105 371.147 49.0105C377.477 49.0105 381.016 52.5494 381.016 57.0411C381.016 61.737 377.068 65.2079 371.352 65.2079ZM439.745 72.0815H431.306V62.4856H423.003V72.0815H407.418L429.536 42.7493H420.077L396.597 73.4427V79.5677H422.731V90.3887H431.306V79.5677H439.745V72.0815Z" fill="#292B30"></path><path d="M71.0949 145.389L60.1379 129.736C66.6032 127.218 70.2782 121.909 70.2782 114.695C70.2782 104.147 62.5198 97.7493 49.9975 97.7493H30.3973V145.389H39.2446V131.505H49.9975C50.61 131.505 51.2225 131.505 51.835 131.437L61.567 145.389H71.0949ZM61.3629 114.695C61.3629 120.684 57.3476 124.223 49.5891 124.223H39.2446V105.235H49.5891C57.3476 105.235 61.3629 108.706 61.3629 114.695ZM114.205 131.914C114.205 122.454 105.97 120.072 98.4158 118.234V104.487C102.023 104.895 105.834 106.052 109.441 108.162L112.231 101.288C108.556 98.9063 103.452 97.409 98.4158 97.1368V89.5826H92.8352V97.2729C82.2184 98.2938 77.1822 104.351 77.1822 111.292C77.1822 120.752 85.2809 123.202 92.8352 125.04V138.651C87.6629 138.175 82.5587 136.201 79.2239 133.479L76.1614 140.353C79.7003 143.415 86.1657 145.593 92.8352 146.001V153.555H98.4158V145.933C109.101 144.844 114.205 138.855 114.205 131.914ZM85.9615 110.884C85.9615 107.89 88.0032 105.44 92.8352 104.691V116.805C88.8879 115.648 85.9615 114.151 85.9615 110.884ZM98.4158 138.515V126.469C102.499 127.626 105.494 129.191 105.494 132.526C105.494 135.452 103.384 137.766 98.4158 138.515Z" fill="#292B30"></path><path d="M0.299447 52.187V56.267H5.83923V78.3887H10.7052V52.187H0.299447ZM22.5282 74.2713L29.5277 67.6086C33.1585 64.2023 33.8697 61.8816 33.8697 59.3363C33.8697 54.6949 30.2015 51.8127 24.512 51.8127C20.2074 51.8127 16.5766 53.4222 14.5554 56.1547L17.9616 58.7749C19.4214 56.9033 21.555 56.0424 24.1003 56.0424C27.3193 56.0424 28.9663 57.4274 28.9663 59.8229C28.9663 61.2827 28.5171 62.8174 25.9718 65.2504L15.566 75.1322V78.3887H34.8804V74.2713H22.5282ZM56.9327 78.3887L49.1097 68.17L56.5959 58.4006H51.5427L46.6392 64.951L41.7358 58.4006H36.5329L43.9816 68.2449L36.196 78.3887H41.3615L46.5269 71.4639L51.655 78.3887H56.9327ZM85.6276 50.6149V60.871C84.0555 59.0369 81.7723 58.176 79.1895 58.176C73.3877 58.176 69.0832 62.1811 69.0832 68.3946C69.0832 74.6081 73.3877 78.6507 79.1895 78.6507C81.922 78.6507 84.2427 77.7149 85.8148 75.8059V78.3887H90.3065V50.6149H85.6276ZM79.751 74.6456C76.3822 74.6456 73.7995 72.2126 73.7995 68.3946C73.7995 64.5767 76.3822 62.1436 79.751 62.1436C83.1198 62.1436 85.7025 64.5767 85.7025 68.3946C85.7025 72.2126 83.1198 74.6456 79.751 74.6456ZM115.218 68.5069C115.218 62.2559 110.951 58.176 105.111 58.176C99.1598 58.176 94.7804 62.4431 94.7804 68.3946C94.7804 74.3461 99.1224 78.6507 105.823 78.6507C109.266 78.6507 112.073 77.5278 113.87 75.3942L111.362 72.512C109.94 73.9718 108.181 74.683 105.935 74.683C102.454 74.683 100.021 72.8115 99.4593 69.8919H115.143C115.18 69.4427 115.218 68.8812 115.218 68.5069ZM105.111 61.9191C108.181 61.9191 110.389 63.9029 110.763 66.7851H99.4218C99.871 63.8655 102.079 61.9191 105.111 61.9191Z" fill="#292B30"></path></svg>