<svg xmlns="http://www.w3.org/2000/svg" width="501" height="415" viewBox="0 0 501 415" fill="none"><path d="M413.285 218.848L493 265.908L435.275 298.564L439.783 363.875L360.947 319.015" stroke="#00FFFF" stroke-width="7.69667"></path><path d="M87.7155 162.883L8 115.823L65.725 83.1673L61.217 17.8556L140.053 62.7162" stroke="#00FFFF" stroke-width="7.69667"></path><circle cx="245.277" cy="201.146" r="143.378" stroke="#00FFFF" stroke-width="7.69667"></circle><path d="M377.77 253.593H112.895C124.55 286.726 168.355 351.627 250.335 346.173C332.316 340.72 369.45 282.181 377.77 253.593Z" fill="#00FFFF"></path><path d="M176.078 313.863C175.767 313.863 175.523 313.774 175.345 313.596C175.167 313.419 175.079 313.174 175.079 312.864V268.234C175.079 267.924 175.167 267.679 175.345 267.502C175.523 267.324 175.767 267.235 176.078 267.235H193.197C196.794 267.235 199.969 267.857 202.722 269.1C205.52 270.344 207.673 272.098 209.183 274.363C210.693 276.627 211.448 279.247 211.448 282.223V298.875C211.448 301.851 210.693 304.471 209.183 306.735C207.673 309 205.52 310.754 202.722 311.998C199.969 313.241 196.794 313.863 193.197 313.863H176.078ZM187.601 302.805C187.601 303.027 187.712 303.138 187.934 303.138H193.663C195.173 303.138 196.416 302.561 197.393 301.407C198.37 300.208 198.881 298.653 198.925 296.744V284.354C198.925 282.445 198.437 280.913 197.46 279.758C196.483 278.559 195.195 277.96 193.596 277.96H187.934C187.712 277.96 187.601 278.071 187.601 278.293V302.805ZM217.254 313.863C216.943 313.863 216.699 313.774 216.521 313.596C216.344 313.419 216.255 313.174 216.255 312.864V268.234C216.255 267.924 216.344 267.679 216.521 267.502C216.699 267.324 216.943 267.235 217.254 267.235H227.779C228.089 267.235 228.334 267.324 228.511 267.502C228.689 267.679 228.778 267.924 228.778 268.234V312.864C228.778 313.174 228.689 313.419 228.511 313.596C228.334 313.774 228.089 313.863 227.779 313.863H217.254ZM265.122 313.863C264.501 313.863 264.123 313.574 263.99 312.997L262.524 307.801C262.436 307.624 262.325 307.535 262.191 307.535H248.07C247.937 307.535 247.826 307.624 247.737 307.801L246.271 312.997C246.138 313.574 245.761 313.863 245.139 313.863H233.749C232.949 313.863 232.661 313.485 232.883 312.73L246.938 268.035C247.115 267.502 247.493 267.235 248.07 267.235H262.191C262.769 267.235 263.146 267.502 263.324 268.035L277.379 312.73C277.423 312.819 277.445 312.952 277.445 313.13C277.445 313.619 277.134 313.863 276.513 313.863H265.122ZM250.668 297.543C250.623 297.81 250.712 297.943 250.934 297.943H259.26C259.527 297.943 259.616 297.81 259.527 297.543L255.264 282.622C255.219 282.489 255.153 282.423 255.064 282.423C254.975 282.423 254.909 282.489 254.864 282.622L250.668 297.543ZM295.834 314.396C292.104 314.396 288.84 313.796 286.042 312.597C283.245 311.354 281.069 309.6 279.514 307.335C278.004 305.07 277.25 302.45 277.25 299.475V298.542C277.25 298.231 277.338 297.987 277.516 297.81C277.694 297.632 277.938 297.543 278.249 297.543H288.573C288.884 297.543 289.128 297.632 289.306 297.81C289.484 297.987 289.573 298.231 289.573 298.542V298.942C289.573 300.185 290.216 301.296 291.504 302.273C292.836 303.205 294.591 303.671 296.766 303.671C298.41 303.671 299.586 303.338 300.297 302.672C301.007 301.962 301.363 301.185 301.363 300.341C301.363 299.364 300.919 298.631 300.03 298.143C299.142 297.654 297.521 297.055 295.168 296.344L293.236 295.811C288.84 294.479 285.154 292.703 282.179 290.482C279.203 288.262 277.716 285.043 277.716 280.824C277.716 278.026 278.471 275.562 279.981 273.43C281.49 271.254 283.555 269.589 286.175 268.434C288.84 267.28 291.815 266.702 295.101 266.702C298.565 266.702 301.696 267.346 304.493 268.634C307.335 269.922 309.556 271.743 311.154 274.096C312.797 276.45 313.619 279.136 313.619 282.156V282.756C313.619 283.066 313.53 283.311 313.353 283.488C313.175 283.666 312.931 283.755 312.62 283.755H302.295C301.984 283.755 301.74 283.666 301.562 283.488C301.385 283.311 301.296 283.066 301.296 282.756V282.689C301.296 281.357 300.697 280.158 299.498 279.092C298.299 277.982 296.678 277.427 294.635 277.427C293.214 277.427 292.082 277.715 291.238 278.293C290.438 278.87 290.039 279.669 290.039 280.691C290.039 281.49 290.327 282.178 290.905 282.756C291.526 283.288 292.459 283.821 293.702 284.354C294.946 284.843 296.855 285.487 299.431 286.286C299.786 286.419 301.34 286.908 304.094 287.751C306.891 288.551 309.223 290.038 311.088 292.214C312.953 294.346 313.885 296.944 313.885 300.008C313.885 302.983 313.131 305.559 311.621 307.735C310.111 309.866 308.001 311.509 305.293 312.664C302.584 313.818 299.431 314.396 295.834 314.396Z" fill="white"></path><path d="M190.478 242.778C176.187 242.778 164.899 238.815 156.612 230.889C148.446 222.963 144.363 212.035 144.363 198.104V157.033C144.363 143.463 148.446 132.775 156.612 124.969C164.899 117.043 176.187 113.08 190.478 113.08C204.769 113.08 216.057 117.043 224.343 124.969C232.629 132.775 236.773 143.463 236.773 157.033V198.104C236.773 211.915 232.629 222.843 224.343 230.889C216.057 238.815 204.769 242.778 190.478 242.778ZM190.478 213.776C194.321 213.776 197.323 212.575 199.485 210.173C201.766 207.651 202.907 204.229 202.907 199.906V155.953C202.907 151.629 201.766 148.267 199.485 145.865C197.323 143.343 194.321 142.082 190.478 142.082C186.635 142.082 183.633 143.343 181.471 145.865C179.309 148.267 178.229 151.629 178.229 155.953V199.906C178.229 204.229 179.309 207.651 181.471 210.173C183.633 212.575 186.635 213.776 190.478 213.776ZM261.495 240.616C260.534 240.616 259.814 240.376 259.333 239.896C258.973 239.295 258.973 238.515 259.333 237.554L296.621 144.604C296.741 144.364 296.681 144.124 296.441 143.883C296.321 143.643 296.141 143.523 295.901 143.523H272.123C271.522 143.523 271.222 143.823 271.222 144.424V152.53C271.222 153.371 270.982 154.031 270.502 154.511C270.021 154.992 269.361 155.232 268.52 155.232H246.544C245.703 155.232 245.042 154.992 244.562 154.511C244.082 154.031 243.842 153.371 243.842 152.53L244.022 117.223C244.022 116.383 244.262 115.722 244.742 115.242C245.223 114.762 245.883 114.521 246.724 114.521H329.946C330.787 114.521 331.447 114.762 331.928 115.242C332.408 115.722 332.648 116.383 332.648 117.223V141.722C332.648 142.562 332.408 143.703 331.928 145.144L295 238.455C294.52 239.896 293.439 240.616 291.758 240.616H261.495Z" fill="#00FFFF"></path><path d="M194.216 239.04C179.925 239.04 168.637 235.077 160.351 227.151C152.185 219.225 148.101 208.296 148.101 194.366V153.295C148.101 139.725 152.185 129.037 160.351 121.231C168.637 113.305 179.925 109.342 194.216 109.342C208.507 109.342 219.795 113.305 228.082 121.231C236.368 129.037 240.511 139.725 240.511 153.295V194.366C240.511 208.176 236.368 219.105 228.082 227.151C219.795 235.077 208.507 239.04 194.216 239.04ZM194.216 210.038C198.059 210.038 201.061 208.837 203.223 206.435C205.505 203.913 206.645 200.491 206.645 196.167V152.214C206.645 147.891 205.505 144.528 203.223 142.127C201.061 139.605 198.059 138.344 194.216 138.344C190.373 138.344 187.371 139.605 185.209 142.127C183.048 144.528 181.967 147.891 181.967 152.214V196.167C181.967 200.491 183.048 203.913 185.209 206.435C187.371 208.837 190.373 210.038 194.216 210.038ZM265.233 236.878C264.272 236.878 263.552 236.638 263.072 236.157C262.711 235.557 262.711 234.776 263.072 233.816L300.36 140.866C300.48 140.626 300.42 140.385 300.179 140.145C300.059 139.905 299.879 139.785 299.639 139.785H275.861C275.261 139.785 274.96 140.085 274.96 140.686V148.792C274.96 149.632 274.72 150.293 274.24 150.773C273.76 151.254 273.099 151.494 272.258 151.494H250.282C249.441 151.494 248.781 151.254 248.3 150.773C247.82 150.293 247.58 149.632 247.58 148.792L247.76 113.485C247.76 112.644 248 111.984 248.481 111.504C248.961 111.023 249.621 110.783 250.462 110.783H333.685C334.525 110.783 335.186 111.023 335.666 111.504C336.147 111.984 336.387 112.644 336.387 113.485V137.984C336.387 138.824 336.147 139.965 335.666 141.406L298.738 234.716C298.258 236.157 297.177 236.878 295.496 236.878H265.233Z" fill="#292B30"></path><path d="M241.986 40.5247C240.22 40.4289 238.684 40.0032 237.379 39.2474C236.075 38.4681 235.092 37.4228 234.431 36.1115C233.77 34.8002 233.484 33.3203 233.574 31.6718L234.037 23.1231C234.128 21.451 234.572 20.0107 235.37 18.8021C236.169 17.57 237.258 16.6488 238.637 16.0387C240.018 15.4049 241.592 15.136 243.358 15.2317C245.101 15.3262 246.613 15.7507 247.895 16.5052C249.2 17.2609 250.186 18.2474 250.852 19.4645C251.518 20.6816 251.811 22.0319 251.731 23.5156L251.715 23.7982C251.709 23.916 251.656 24.0194 251.557 24.1085C251.482 24.1753 251.386 24.2055 251.268 24.1991L248.054 24.0248C247.936 24.0184 247.832 23.9774 247.742 23.9016C247.676 23.8036 247.646 23.6957 247.653 23.5779L247.662 23.4013C247.731 22.1296 247.353 21.058 246.526 20.1865C245.723 19.3162 244.603 18.8422 243.166 18.7643C241.73 18.6864 240.552 19.0595 239.634 19.8836C238.716 20.6842 238.219 21.7909 238.143 23.204L237.664 32.0353C237.587 33.4483 237.984 34.6154 238.856 35.5366C239.728 36.4342 240.894 36.9226 242.355 37.0018C243.768 37.0784 244.894 36.7734 245.735 36.0867C246.6 35.3778 247.067 34.3757 247.138 33.0805L247.256 30.8903C247.263 30.7725 247.207 30.7105 247.089 30.7041L242.744 30.4685C242.627 30.4621 242.522 30.421 242.432 30.3453C242.367 30.2472 242.337 30.1393 242.343 30.0216L242.485 27.4075C242.491 27.2898 242.532 27.1975 242.606 27.1306C242.706 27.0416 242.814 27.0002 242.932 27.0066L251.092 27.4491C251.21 27.4555 251.302 27.5077 251.367 27.6057C251.457 27.6815 251.499 27.7782 251.493 27.896L251.248 32.4176C251.101 35.1259 250.186 37.1902 248.503 38.6106C246.843 40.0323 244.671 40.6703 241.986 40.5247Z" fill="#292B30"></path><path d="M276.558 45.1926C276.327 45.1449 276.201 44.9984 276.179 44.7531L275.801 40.8098C275.774 40.7079 275.726 40.6497 275.657 40.6354L266.51 38.7461C266.441 38.7318 266.374 38.7661 266.308 38.8489L264.399 42.3199C264.282 42.5365 264.108 42.621 263.877 42.5733L260.413 41.8576C260.274 41.829 260.177 41.7729 260.122 41.6893C260.072 41.5826 260.087 41.4532 260.167 41.301L272.523 19.4334C272.64 19.2167 272.814 19.1322 273.044 19.18L277.375 20.0745C277.606 20.1222 277.732 20.2687 277.754 20.514L280.469 45.4947C280.483 45.5457 280.482 45.6058 280.468 45.6751C280.425 45.883 280.276 45.9607 280.022 45.9082L276.558 45.1926ZM268.105 35.5715C268.054 35.7053 268.085 35.7842 268.201 35.808L275.234 37.2608C275.373 37.2894 275.433 37.2297 275.416 37.0816L274.244 24.7381C274.24 24.6409 274.215 24.5876 274.169 24.578C274.123 24.5685 274.079 24.6075 274.037 24.6951L268.105 35.5715Z" fill="#292B30"></path><path d="M303.467 53.9301C303.246 53.8474 303.129 53.69 303.115 53.4582L302.318 42.2787C302.307 42.1738 302.257 42.1048 302.169 42.0717L298.193 40.5818C298.083 40.5404 298.007 40.5749 297.966 40.6854L294.44 50.0934C294.398 50.2039 294.317 50.2867 294.195 50.3419C294.104 50.3834 294.004 50.3834 293.893 50.342L290.845 49.1997C290.735 49.1584 290.648 49.088 290.585 48.9886C290.551 48.8754 290.556 48.7637 290.597 48.6532L298.99 26.2593C299.031 26.1489 299.098 26.073 299.189 26.0316C299.31 25.9763 299.426 25.9694 299.536 26.0108L308.646 29.4251C309.994 29.93 311.079 30.6641 311.901 31.6273C312.732 32.5685 313.24 33.6656 313.426 34.9188C313.619 36.1499 313.468 37.428 312.971 38.7531C312.4 40.2769 311.514 41.4309 310.313 42.2151C309.143 42.9855 307.784 43.3197 306.235 43.2179C306.191 43.2013 306.149 43.211 306.111 43.2469C306.072 43.2828 306.056 43.327 306.061 43.3794L307.119 54.77C307.13 54.8749 307.127 54.9494 307.111 54.9936C307.045 55.1703 306.89 55.2131 306.647 55.122L303.467 53.9301ZM301.906 30.6768C301.795 30.6354 301.719 30.6699 301.678 30.7804L299.207 37.3727C299.166 37.4831 299.2 37.559 299.311 37.6004L304.28 39.4627C305.34 39.86 306.306 39.8695 307.178 39.4912C308.081 39.099 308.727 38.384 309.116 37.346C309.505 36.308 309.488 35.3446 309.066 34.4559C308.665 33.5754 307.935 32.9365 306.875 32.5392L301.906 30.6768Z" fill="#292B30"></path><path d="M329.97 67.2457C329.764 67.1304 329.688 66.9526 329.742 66.7122L330.574 62.8393C330.579 62.7339 330.55 62.664 330.489 62.6294L322.341 58.0636C322.279 58.029 322.205 58.0414 322.118 58.1006L319.249 60.8321C319.072 61.0033 318.88 61.0312 318.674 60.9159L315.588 59.1864C315.465 59.1173 315.39 59.0345 315.362 58.9382C315.347 58.8213 315.4 58.7024 315.522 58.5814L333.91 41.4717C334.087 41.3006 334.278 41.2727 334.484 41.388L338.342 43.5498C338.548 43.6651 338.624 43.8429 338.57 44.0832L333.607 68.716C333.604 68.7687 333.586 68.8259 333.551 68.8876C333.447 69.0728 333.282 69.102 333.056 68.9751L329.97 67.2457ZM324.821 55.5197C324.731 55.6316 324.738 55.7164 324.841 55.774L331.106 59.2848C331.229 59.354 331.305 59.3153 331.333 59.1688L333.948 47.0488C333.973 46.955 333.966 46.8965 333.924 46.8735C333.883 46.8504 333.829 46.8742 333.763 46.945L324.821 55.5197Z" fill="#292B30"></path><path d="M368.516 64.9555C368.589 64.863 368.676 64.8108 368.775 64.7991C368.907 64.7835 369.02 64.8122 369.112 64.8853L371.667 66.9016C371.76 66.9747 371.805 67.0701 371.802 67.188C371.832 67.302 371.811 67.4053 371.738 67.4978L356.922 86.271C356.849 86.3636 356.746 86.4177 356.614 86.4333C356.515 86.445 356.419 86.4143 356.326 86.3413L353.854 84.3907C353.669 84.2446 353.598 84.0683 353.641 83.8617L355.987 64.4419C355.994 64.3571 355.972 64.3094 355.92 64.2987C355.883 64.2695 355.835 64.2919 355.777 64.366L345.619 77.351C345.546 77.4436 345.444 77.4977 345.311 77.5133C345.212 77.525 345.116 77.4944 345.023 77.4213L342.468 75.405C342.376 75.3319 342.314 75.2384 342.284 75.1244C342.287 75.0066 342.325 74.9013 342.398 74.8088L357.213 56.0356C357.287 55.943 357.373 55.8909 357.472 55.8792C357.605 55.8636 357.717 55.8923 357.81 55.9653L360.281 57.9159C360.466 58.062 360.538 58.2383 360.495 58.4449L358.121 77.8428C358.114 77.9275 358.129 77.9845 358.166 78.0137C358.217 78.0245 358.273 77.9928 358.331 77.9187L368.516 64.9555Z" fill="#292B30"></path><path d="M394.236 89.4187C394.316 89.5047 394.347 89.6058 394.326 89.7219C394.339 89.8392 394.303 89.9381 394.217 90.0188L392.23 91.8829C392.144 91.9636 392.035 92.0018 391.901 91.9976C391.801 91.9944 391.711 91.9498 391.63 91.8638L387.176 87.1172C387.095 87.0312 387.012 87.0285 386.926 87.1092L371.912 101.199C371.826 101.279 371.716 101.318 371.583 101.313C371.483 101.31 371.392 101.266 371.312 101.18L369.085 98.8063C369.004 98.7203 368.957 98.6187 368.944 98.5015C368.964 98.3854 369.018 98.2869 369.104 98.2062L384.118 84.1168C384.204 84.0361 384.206 83.9527 384.125 83.8667L379.841 79.3006C379.76 79.2147 379.713 79.1131 379.7 78.9958C379.72 78.8797 379.774 78.7813 379.86 78.7006L381.846 76.8365C381.932 76.7558 382.025 76.717 382.125 76.7202C382.258 76.7245 382.365 76.7696 382.446 76.8556L394.236 89.4187Z" fill="#292B30"></path><path d="M383.44 115.711C383.37 115.617 383.335 115.51 383.336 115.392C383.37 115.279 383.434 115.188 383.529 115.118L402.753 100.892C402.848 100.822 402.945 100.794 403.043 100.809C403.175 100.829 403.276 100.886 403.347 100.981L405.283 103.597C405.353 103.692 405.371 103.796 405.337 103.909C405.336 104.027 405.289 104.121 405.194 104.191L385.97 118.416C385.875 118.487 385.762 118.512 385.63 118.492C385.531 118.477 385.446 118.423 385.376 118.328L383.44 115.711Z" fill="#292B30"></path><path d="M400.178 141.989C400.061 141.784 400.088 141.592 400.258 141.415L402.975 138.532C403.034 138.444 403.046 138.37 403.011 138.308L398.404 130.184C398.37 130.122 398.299 130.094 398.194 130.1L394.325 130.951C394.085 131.006 393.907 130.931 393.791 130.726L392.046 127.648C391.976 127.525 391.954 127.416 391.981 127.319C392.028 127.211 392.135 127.137 392.302 127.096L416.892 121.978C417.132 121.923 417.31 121.998 417.427 122.204L419.608 126.05C419.724 126.256 419.697 126.447 419.527 126.625L402.528 145.13C402.499 145.174 402.453 145.213 402.392 145.248C402.207 145.353 402.051 145.292 401.923 145.067L400.178 141.989ZM401.843 129.291C401.709 129.341 401.67 129.417 401.728 129.519L405.271 135.766C405.341 135.889 405.425 135.895 405.525 135.785L414.037 126.769C414.108 126.702 414.131 126.648 414.108 126.607C414.085 126.566 414.026 126.558 413.933 126.584L401.843 129.291Z" fill="#292B30"></path><path d="M276.648 354.505C277.557 354.321 278.394 354.344 279.161 354.576C279.927 354.807 280.569 355.216 281.088 355.804C281.597 356.407 281.94 357.15 282.119 358.033L283.099 362.87C283.278 363.753 283.25 364.565 283.013 365.305C282.767 366.061 282.336 366.695 281.72 367.206C281.104 367.717 280.342 368.065 279.433 368.249C278.525 368.433 277.687 368.41 276.921 368.178C276.142 367.95 275.498 367.534 274.99 366.931C274.471 366.344 274.122 365.608 273.943 364.725L272.963 359.888C272.784 359.005 272.818 358.186 273.064 357.429C273.301 356.689 273.733 356.062 274.362 355.548C274.978 355.037 275.74 354.689 276.648 354.505ZM276.886 355.676C275.913 355.873 275.192 356.326 274.723 357.034C274.253 357.741 274.117 358.582 274.314 359.554L275.31 364.468C275.507 365.441 275.96 366.162 276.667 366.631C277.378 367.113 278.22 367.256 279.192 367.059C280.152 366.864 280.865 366.407 281.332 365.686C281.801 364.978 281.937 364.138 281.74 363.165L280.745 358.251C280.548 357.279 280.095 356.558 279.387 356.088C278.679 355.619 277.845 355.482 276.886 355.676Z" fill="#292B30"></path><path d="M265.035 356.419C265.941 356.303 266.768 356.382 267.513 356.656C268.259 356.929 268.867 357.365 269.338 357.963C269.811 358.574 270.103 359.314 270.213 360.182L271.386 369.391C271.403 369.52 271.346 369.593 271.217 369.61L270.226 369.736C270.097 369.752 270.024 369.696 270.007 369.566L268.829 360.318C268.712 359.399 268.318 358.686 267.648 358.179C266.98 357.685 266.16 357.499 265.188 357.623C264.217 357.747 263.47 358.132 262.946 358.778C262.425 359.436 262.223 360.226 262.34 361.145L263.518 370.393C263.535 370.523 263.478 370.596 263.348 370.612L262.358 370.738C262.228 370.755 262.155 370.698 262.139 370.569L260.965 361.36C260.855 360.492 260.952 359.703 261.256 358.993C261.549 358.297 262.022 357.724 262.676 357.272C263.329 356.82 264.115 356.536 265.035 356.419Z" fill="#292B30"></path><path d="M248.631 357.646C250.106 357.611 251.282 357.917 252.16 358.563C253.023 359.209 253.468 360.086 253.494 361.196L253.508 361.803C253.511 361.933 253.448 362 253.317 362.003L252.358 362.026C252.227 362.029 252.16 361.965 252.157 361.834L252.145 361.306C252.127 360.549 251.8 359.942 251.162 359.487C250.525 359.045 249.652 358.837 248.542 358.862C247.537 358.886 246.778 359.112 246.266 359.542C245.754 359.985 245.506 360.559 245.522 361.264C245.533 361.721 245.666 362.11 245.922 362.43C246.164 362.751 246.543 363.049 247.059 363.324C247.562 363.6 248.275 363.916 249.197 364.274C250.185 364.643 250.957 364.964 251.512 365.239C252.054 365.526 252.5 365.895 252.85 366.344C253.187 366.806 253.364 367.39 253.381 368.094C253.406 369.191 253.047 370.048 252.304 370.666C251.548 371.298 250.505 371.629 249.173 371.66C247.724 371.694 246.574 371.381 245.723 370.722C244.872 370.062 244.433 369.171 244.407 368.049L244.397 367.618C244.394 367.487 244.458 367.421 244.588 367.418L245.567 367.395C245.698 367.392 245.764 367.455 245.768 367.586L245.776 367.938C245.793 368.696 246.108 369.309 246.72 369.778C247.318 370.247 248.146 370.469 249.204 370.445C250.13 370.423 250.837 370.217 251.325 369.827C251.812 369.437 252.047 368.883 252.03 368.165C252.019 367.695 251.893 367.306 251.651 366.998C251.396 366.704 251.043 366.444 250.594 366.22C250.132 366.009 249.427 365.731 248.479 365.388C247.517 365.018 246.744 364.67 246.162 364.344C245.567 364.019 245.087 363.612 244.723 363.124C244.347 362.65 244.15 362.06 244.134 361.355C244.108 360.259 244.492 359.375 245.286 358.703C246.081 358.032 247.196 357.679 248.631 357.646Z" fill="#292B30"></path><path d="M232.455 370.138C232.461 370.008 232.529 369.945 232.659 369.951L239.859 370.276C239.911 370.279 239.939 370.254 239.941 370.202L240.159 365.369C240.162 365.317 240.137 365.29 240.085 365.287L235.037 365.059C234.906 365.053 234.844 364.985 234.85 364.855L234.887 364.033C234.893 363.903 234.961 363.84 235.092 363.846L240.139 364.074C240.192 364.077 240.219 364.052 240.221 363.999L240.443 359.089C240.445 359.036 240.421 359.009 240.368 359.007L233.168 358.682C233.038 358.676 232.976 358.607 232.981 358.477L233.019 357.655C233.024 357.525 233.093 357.463 233.223 357.468L241.695 357.851C241.825 357.857 241.888 357.925 241.882 358.056L241.281 371.36C241.275 371.491 241.207 371.553 241.076 371.547L232.604 371.164C232.474 371.158 232.412 371.09 232.418 370.96L232.455 370.138Z" fill="#292B30"></path><path d="M226 356.529C226.907 356.639 227.689 356.918 228.345 357.365C229.001 357.813 229.484 358.385 229.795 359.08C230.103 359.788 230.205 360.576 230.1 361.445L228.984 370.661C228.968 370.79 228.895 370.847 228.766 370.832L227.774 370.712C227.644 370.696 227.587 370.623 227.603 370.494L228.724 361.239C228.836 360.318 228.629 359.53 228.103 358.875C227.576 358.232 226.826 357.852 225.854 357.734C224.882 357.617 224.063 357.807 223.398 358.305C222.731 358.816 222.342 359.532 222.23 360.452L221.109 369.707C221.093 369.836 221.021 369.893 220.891 369.878L219.899 369.758C219.77 369.742 219.713 369.669 219.729 369.54L220.845 360.324C220.95 359.455 221.237 358.714 221.706 358.1C222.161 357.497 222.76 357.057 223.504 356.779C224.248 356.501 225.08 356.417 226 356.529Z" fill="#292B30"></path><path d="M213.603 354.721C213.73 354.75 213.779 354.829 213.75 354.956L210.778 367.938C210.749 368.066 210.671 368.115 210.544 368.085L206.038 367.054C204.778 366.766 203.855 366.206 203.268 365.375C202.668 364.541 202.498 363.558 202.758 362.425L204.13 356.431C204.389 355.298 204.97 354.487 205.873 353.997C206.762 353.504 207.837 353.402 209.097 353.69L213.603 354.721ZM212.15 355.715C212.161 355.664 212.142 355.633 212.091 355.621L208.769 354.861C207.942 354.671 207.231 354.763 206.636 355.136C206.029 355.506 205.633 356.098 205.446 356.913L204.157 362.545C203.967 363.372 204.059 364.083 204.432 364.677C204.805 365.272 205.412 365.665 206.252 365.857L209.574 366.618C209.625 366.629 209.656 366.61 209.667 366.559L212.15 355.715Z" fill="#292B30"></path><path d="M202.176 351.903C202.301 351.938 202.346 352.019 202.311 352.145L198.671 364.956C198.635 365.081 198.555 365.126 198.429 365.091L197.468 364.818C197.343 364.782 197.298 364.701 197.333 364.576L200.973 351.765C201.009 351.639 201.089 351.594 201.215 351.63L202.176 351.903Z" fill="#292B30"></path><path d="M185.667 360.778C185.625 360.902 185.542 360.942 185.418 360.899L184.474 360.574C184.351 360.531 184.31 360.448 184.353 360.325L188.694 347.734C188.736 347.611 188.819 347.57 188.943 347.613L189.868 347.932C189.955 347.962 190.014 348.031 190.046 348.138L192.817 360.591C192.816 360.633 192.831 360.651 192.86 360.648C192.884 360.656 192.903 360.642 192.916 360.605L196.415 350.396C196.457 350.273 196.54 350.232 196.664 350.275L197.608 350.6C197.731 350.643 197.772 350.726 197.729 350.849L193.388 363.44C193.346 363.564 193.263 363.604 193.139 363.561L192.214 363.242C192.127 363.212 192.068 363.144 192.036 363.036L189.265 350.583C189.266 350.542 189.253 350.517 189.229 350.508C189.2 350.512 189.179 350.533 189.166 350.57L185.667 360.778Z" fill="#292B30"></path><path d="M173.084 355.561C173.031 355.681 172.945 355.714 172.826 355.662L171.911 355.262C171.791 355.209 171.758 355.123 171.81 355.004L177.149 342.803C177.201 342.683 177.287 342.649 177.407 342.702L178.322 343.102C178.442 343.155 178.475 343.241 178.423 343.36L176.012 348.869C175.991 348.916 176.005 348.951 176.053 348.972L181.776 351.476C181.824 351.497 181.859 351.484 181.88 351.436L184.29 345.928C184.342 345.808 184.428 345.774 184.548 345.827L185.463 346.227C185.583 346.279 185.616 346.365 185.564 346.485L180.225 358.686C180.173 358.806 180.087 358.839 179.967 358.787L179.052 358.387C178.932 358.334 178.899 358.248 178.951 358.129L181.33 352.692C181.351 352.644 181.338 352.61 181.29 352.589L175.566 350.084C175.518 350.063 175.484 350.077 175.463 350.125L173.084 355.561Z" fill="#292B30"></path><path d="M160.674 348.328C160.735 348.213 160.823 348.186 160.938 348.246L167.313 351.609C167.36 351.633 167.395 351.622 167.419 351.576L169.676 347.297C169.7 347.251 169.689 347.215 169.643 347.191L165.174 344.834C165.058 344.773 165.031 344.685 165.092 344.569L165.476 343.842C165.536 343.726 165.625 343.699 165.74 343.76L170.21 346.117C170.256 346.141 170.291 346.13 170.315 346.084L172.609 341.736C172.633 341.69 172.622 341.655 172.576 341.63L166.201 338.268C166.085 338.207 166.058 338.119 166.119 338.003L166.503 337.276C166.564 337.16 166.652 337.133 166.767 337.194L174.268 341.15C174.384 341.211 174.411 341.299 174.35 341.415L168.138 353.195C168.077 353.31 167.988 353.337 167.873 353.277L160.372 349.321C160.256 349.26 160.229 349.171 160.29 349.056L160.674 348.328Z" fill="#292B30"></path><path d="M164.14 335.583C164.252 335.65 164.275 335.739 164.208 335.852L157.404 347.301C157.338 347.413 157.248 347.436 157.136 347.369L156.277 346.859C156.165 346.792 156.142 346.702 156.209 346.59L163.013 335.141C163.08 335.029 163.169 335.006 163.281 335.073L164.14 335.583Z" fill="#292B30"></path><path d="M153.62 328.842C153.717 328.908 153.757 328.989 153.739 329.087L152.773 335.736C152.762 335.776 152.773 335.807 152.806 335.829L155.578 337.673C155.621 337.702 155.658 337.695 155.687 337.651L159.006 332.662C159.079 332.553 159.169 332.535 159.278 332.607L160.109 333.16C160.218 333.233 160.236 333.323 160.164 333.432L152.787 344.52C152.714 344.629 152.624 344.647 152.515 344.575L148.292 341.765C147.357 341.143 146.797 340.347 146.611 339.376C146.418 338.417 146.633 337.47 147.255 336.535C147.761 335.774 148.398 335.264 149.166 335.006C149.933 334.749 150.721 334.779 151.529 335.097C151.587 335.104 151.616 335.084 151.616 335.037L152.511 328.387C152.515 328.358 152.527 328.327 152.549 328.295C152.6 328.219 152.668 328.21 152.755 328.267L153.62 328.842ZM152.128 342.858C152.171 342.887 152.208 342.88 152.237 342.837L154.981 338.711C155.01 338.668 155.003 338.631 154.96 338.603L151.927 336.585C151.296 336.165 150.655 336.021 150.003 336.152C149.352 336.283 148.816 336.664 148.396 337.294C147.977 337.925 147.833 338.566 147.964 339.217C148.087 339.88 148.465 340.421 149.095 340.841L152.128 342.858Z" fill="#292B30"></path><path d="M147.55 324.084C148.283 324.652 148.811 325.302 149.136 326.033C149.461 326.765 149.57 327.519 149.464 328.295C149.339 329.074 149 329.82 148.448 330.531L145.422 334.431C144.87 335.143 144.236 335.651 143.521 335.955C142.787 336.262 142.026 336.349 141.237 336.216C140.448 336.083 139.687 335.732 138.954 335.164C138.222 334.595 137.693 333.946 137.368 333.214C137.033 332.475 136.928 331.716 137.053 330.937C137.159 330.16 137.489 329.416 138.041 328.704L141.067 324.805C141.619 324.093 142.262 323.584 142.995 323.277C143.711 322.973 144.468 322.891 145.268 323.032C146.057 323.165 146.818 323.516 147.55 324.084ZM146.818 325.028C146.034 324.42 145.22 324.169 144.378 324.275C143.535 324.381 142.81 324.827 142.201 325.611L139.128 329.572C138.52 330.356 138.269 331.17 138.375 332.012C138.473 332.865 138.915 333.596 139.699 334.204C140.472 334.805 141.285 335.046 142.135 334.93C142.978 334.823 143.704 334.378 144.312 333.594L147.385 329.633C147.993 328.849 148.244 328.035 148.138 327.192C148.032 326.35 147.592 325.628 146.818 325.028Z" fill="#292B30"></path><path d="M138.003 316.301C138.097 316.391 138.099 316.483 138.009 316.578L128.814 326.212C128.723 326.306 128.631 326.308 128.537 326.218L125.193 323.027C124.258 322.134 123.751 321.181 123.672 320.167C123.584 319.144 123.941 318.212 124.743 317.371L128.989 312.923C129.792 312.082 130.706 311.682 131.732 311.723C132.748 311.755 133.724 312.217 134.659 313.109L138.003 316.301ZM136.246 316.411C136.282 316.373 136.281 316.336 136.244 316.3L133.778 313.947C133.164 313.361 132.507 313.076 131.805 313.093C131.094 313.1 130.45 313.406 129.873 314.01L125.884 318.19C125.298 318.804 125.013 319.461 125.03 320.163C125.046 320.864 125.366 321.513 125.989 322.108L128.454 324.461C128.492 324.497 128.529 324.496 128.565 324.458L136.246 316.411Z" fill="#292B30"></path><path d="M114.434 310.206C114.531 310.118 114.623 310.123 114.711 310.219L119.545 315.566C119.58 315.605 119.616 315.606 119.655 315.571L123.244 312.327C123.282 312.292 123.284 312.255 123.249 312.217L119.861 308.468C119.773 308.371 119.778 308.279 119.874 308.192L120.485 307.64C120.581 307.552 120.674 307.557 120.761 307.654L124.15 311.402C124.185 311.441 124.222 311.443 124.261 311.408L127.907 308.111C127.946 308.076 127.948 308.039 127.913 308L123.079 302.654C122.992 302.557 122.996 302.465 123.093 302.377L123.703 301.826C123.8 301.738 123.892 301.743 123.98 301.84L129.667 308.13C129.755 308.227 129.75 308.319 129.653 308.407L119.774 317.338C119.677 317.426 119.585 317.421 119.498 317.325L113.81 311.034C113.723 310.937 113.727 310.845 113.824 310.757L114.434 310.206Z" fill="#292B30"></path><path d="M117.319 293.336C117.389 293.431 117.394 293.525 117.333 293.618L109.125 304.966L109.074 305.028C109 305.082 108.929 305.062 108.859 304.967L108.232 304.116C108.162 304.021 108.158 303.927 108.219 303.833L115.346 294.157C115.359 294.131 115.358 294.108 115.343 294.087C115.327 294.066 115.305 294.058 115.276 294.063L103.921 297.999C103.814 298.029 103.725 297.997 103.656 297.902L103.04 297.066C102.955 296.951 102.982 296.866 103.121 296.812L116.415 292.372C116.522 292.342 116.611 292.374 116.681 292.469L117.319 293.336Z" fill="#292B30"></path><path d="M110.72 283.392C111.215 284.175 111.491 284.966 111.548 285.765C111.604 286.563 111.45 287.309 111.086 288.003C110.703 288.693 110.131 289.278 109.369 289.759L105.197 292.396C104.435 292.877 103.666 293.139 102.89 293.182C102.096 293.22 101.35 293.043 100.654 292.649C99.9568 292.255 99.3608 291.666 98.8656 290.883C98.3704 290.099 98.0945 289.308 98.038 288.51C97.9744 287.7 98.134 286.951 98.5168 286.261C98.8815 285.567 99.4447 284.98 100.206 284.498L104.379 281.862C105.14 281.38 105.918 281.121 106.712 281.082C107.489 281.039 108.229 281.221 108.932 281.625C109.629 282.019 110.225 282.608 110.72 283.392ZM109.71 284.03C109.18 283.191 108.501 282.678 107.672 282.491C106.844 282.304 106.01 282.476 105.171 283.006L100.933 285.684C100.094 286.214 99.5808 286.894 99.3939 287.722C99.196 288.558 99.362 289.395 99.8921 290.234C100.415 291.062 101.097 291.566 101.936 291.746C102.765 291.932 103.599 291.761 104.437 291.231L108.676 288.552C109.515 288.022 110.028 287.343 110.215 286.514C110.402 285.686 110.233 284.858 109.71 284.03Z" fill="#292B30"></path><path d="M106.639 276.907C106.7 277.022 106.673 277.11 106.558 277.172L94.8182 283.46C94.7031 283.521 94.6147 283.495 94.553 283.379L94.0814 282.499C94.0198 282.384 94.0465 282.295 94.1616 282.234L104.935 276.464C104.981 276.439 104.992 276.404 104.967 276.358L101.703 270.263C101.641 270.148 101.668 270.06 101.783 269.998L102.508 269.61C102.623 269.548 102.712 269.575 102.773 269.69L106.639 276.907Z" fill="#292B30"></path><path d="M85.897 265.688C85.8434 265.569 85.8761 265.483 85.9951 265.429L86.763 265.084C86.8821 265.03 86.9684 265.063 87.0221 265.182L88.5983 268.682C88.6198 268.73 88.6543 268.743 88.7019 268.721L99.8275 263.711C99.9466 263.657 100.033 263.69 100.087 263.809L100.497 264.72C100.55 264.839 100.518 264.925 100.398 264.979L89.2729 269.989C89.2253 270.011 89.2122 270.045 89.2336 270.093L90.7456 273.45C90.7992 273.569 90.7664 273.655 90.6474 273.709L89.8795 274.055C89.7604 274.108 89.6741 274.076 89.6205 273.957L85.897 265.688Z" fill="#292B30"></path><path d="M94.6855 250.181C94.7262 250.291 94.7044 250.382 94.62 250.455L92.577 252.046C92.5448 252.072 92.5355 252.103 92.5491 252.14L94.5798 257.632C94.5934 257.669 94.6208 257.687 94.6621 257.686L97.2484 257.565C97.36 257.565 97.4361 257.621 97.4769 257.731L97.8436 258.723C97.8934 258.857 97.8442 258.931 97.6959 258.944L83.6849 259.51C83.5733 259.509 83.4972 259.454 83.4564 259.344L82.9946 258.095C82.9538 257.984 82.9757 257.893 83.0601 257.82L94.0623 249.116L94.129 249.071C94.2147 249.039 94.2779 249.078 94.3187 249.189L94.6855 250.181ZM93.3139 257.766C93.3429 257.77 93.3674 257.761 93.3873 257.739C93.3905 257.71 93.3876 257.683 93.3785 257.659L91.6263 252.92C91.6172 252.895 91.6043 252.879 91.5875 252.871C91.554 252.856 91.5272 252.859 91.5072 252.88L84.8952 258.039C84.8752 258.06 84.8698 258.083 84.8788 258.108C84.8879 258.132 84.9069 258.146 84.9359 258.149L93.3139 257.766Z" fill="#292B30"></path></svg>